<svg viewBox="0 0 583 260" fill="none" xmlns="http://www.w3.org/2000/svg">
<path fill-rule="evenodd" clip-rule="evenodd" d="M283.28 246.394C171.355 277.083 100.557 325.475 64.228 378.09C54.7181 391.863 47.5781 405.917 42.6856 420H47.9874C52.7094 406.895 59.4558 393.801 68.3424 380.931C103.778 329.611 173.359 281.718 284.602 251.216C430.043 211.337 527.358 162.499 583 70.2795V60.3616C529.117 155.705 432.143 205.576 283.28 246.394ZM0.264755 420C6.84719 397.874 18.6416 375.554 35.4875 354.041C79.3744 297.995 157.894 246.67 270.563 215.777C435.089 170.665 534.418 114.902 583 0.000305176V34.6365C527.739 136.63 426.722 188.513 274.53 230.243C164.032 260.541 88.6733 310.45 47.2975 363.289C32.5369 382.139 22.1455 401.265 15.9638 420H0.264755Z" fill="#E9ECFF"/>
</svg>
