<svg width="11" height="15" viewBox="0 0 11 15" fill="none" xmlns="http://www.w3.org/2000/svg">
<path fill-rule="evenodd" clip-rule="evenodd" d="M9.84285 8.15574C10.0264 8.07846 10.1522 7.84829 10.1748 7.58584C10.2015 7.27923 10.0832 6.97468 9.87824 6.86143C9.30917 6.54695 8.38466 5.8363 7.51752 4.74792C6.65047 3.65966 5.87117 2.23251 5.53424 0.49466C5.47615 0.195025 5.29075 -0.000221265 5.08929 1.88186e-07C4.88783 -0.000221239 4.70243 0.195025 4.64433 0.49466C4.3074 2.23251 3.52811 3.65966 2.66106 4.74792C1.79391 5.8363 0.869398 6.54695 0.300331 6.86143C0.118241 6.96206 0.00452359 7.21376 0.000141617 7.48372C-0.00496857 7.78686 0.128623 8.06856 0.335662 8.15574C1.51492 8.65227 2.48334 9.80071 3.2218 11.0785C3.96034 12.3564 4.44257 13.7188 4.65597 14.5574C4.72187 14.8164 4.88324 14.9815 5.05909 14.9985C5.07776 15.0004 5.09659 15.0005 5.11548 14.9989C5.29285 14.984 5.45615 14.8183 5.52254 14.5574C5.73594 13.7188 6.21817 12.3564 6.95671 11.0785C7.69517 9.80071 8.66359 8.65227 9.84285 8.15574Z" fill="white"/>
</svg>
