<svg viewBox="0 0 3620 1485" fill="none" xmlns="http://www.w3.org/2000/svg">
<g id="Hero Vectors">
<path id="Hero-Thick" d="M3583.79 0C3618.54 83.62 3627.75 174.673 3592.79 266.801C3547.37 386.497 3427.17 508.615 3189.97 618.732C3162.58 631.449 3129.89 641.523 3095.17 651.798C3093.02 652.432 3090.87 653.068 3088.71 653.704L3084.38 654.981C3052.96 664.241 3020.23 673.886 2988.78 685.936C2918.66 712.805 2854.31 751.841 2824.2 826.06C2812.1 855.894 2802.11 883.56 2792.86 909.151L2792.85 909.17C2787.96 922.728 2783.27 935.703 2778.59 948.111C2765.04 984.027 2751.53 1015.32 2733.05 1042.89C2696.2 1097.87 2639.33 1138.53 2521.86 1170.74C2478.59 1182.6 2447.25 1198.59 2422.88 1217.4C2398.53 1236.2 2381.25 1257.75 2366.04 1280.56C2358.63 1291.68 2351.73 1303.06 2344.74 1314.58L2344.73 1314.59C2322.94 1350.49 2300.37 1387.68 2259.39 1422.09C2163.27 1502.78 2054.51 1484.35 1920.18 1452.69C1909.82 1450.25 1899.32 1447.73 1888.67 1445.18L1888.57 1445.16C1761.26 1414.63 1612.12 1378.88 1432.61 1407.03C1346.64 1420.51 1283.63 1419.03 1233.85 1408.19C1184.12 1397.35 1147.44 1377.13 1114.15 1352.9C1097.31 1340.64 1081.29 1327.31 1064.87 1313.62C1016.45 1273.31 964.475 1230.02 877.314 1202.62C595.369 1114 315.55 1100 0 1100V1105C315.45 1105 594.631 1119 875.814 1207.39C961.95 1234.47 1012.91 1276.9 1061.17 1317.08C1077.73 1330.87 1093.97 1344.4 1111.21 1356.95C1144.89 1381.47 1182.2 1402.05 1232.79 1413.07C1283.34 1424.09 1347.01 1425.52 1433.39 1411.97C1611.87 1383.98 1760.12 1419.51 1887.47 1450.04L1887.51 1450.04C1898.16 1452.6 1908.67 1455.12 1919.03 1457.56C2053.1 1489.16 2164.34 1508.4 2262.61 1425.91C2304.28 1390.93 2327.41 1352.8 2349.27 1316.77L2349.28 1316.75C2356.2 1305.35 2362.99 1294.15 2370.2 1283.34C2385.24 1260.78 2402.17 1239.71 2425.94 1221.36C2449.71 1203.01 2480.44 1187.28 2523.18 1175.56C2641.34 1143.16 2699.46 1101.99 2737.2 1045.68C2756.01 1017.61 2769.69 985.877 2783.27 949.875C2787.99 937.349 2792.7 924.321 2797.6 910.742L2797.61 910.723C2806.84 885.189 2816.77 857.706 2828.84 827.94C2858.16 755.658 2920.89 717.305 2990.57 690.605C3021.82 678.631 3054.35 669.043 3085.8 659.776C3089.41 658.711 3093.01 657.651 3096.59 656.592C3131.27 646.33 3164.3 636.162 3192.07 623.268C3429.85 512.885 3551.39 390.003 3597.47 268.574C3632.71 175.691 3623.67 84.0138 3589.2 0H3583.79Z" stroke="#CD3C2F" stroke-width="30" stroke-linejoin="round"/>
<path id="Hero-Thin" d="M3544.05 0C3571.79 76.7069 3585.63 160.011 3558.95 244.988C3523.3 358.532 3414.51 477.411 3163.02 587.632C3135.76 599.581 3103.3 608.708 3068.41 618.2C3065.94 618.87 3063.47 619.542 3060.98 620.216C3028.46 629.043 2994.19 638.345 2961.19 650.594C2890.08 676.995 2823.47 717.597 2790.58 798.682C2778.43 828.648 2768.48 856.7 2759.29 882.649L2759.26 882.713C2755 894.751 2750.89 906.337 2746.8 917.451C2733.8 952.754 2720.84 983.59 2702.99 1010.89C2667.63 1064.96 2612.24 1106.42 2495.55 1138.42C2451.84 1150.4 2420.4 1165.74 2396.05 1183.84C2371.68 1201.95 2354.75 1222.57 2339.83 1244.61C2332.52 1255.4 2325.73 1266.44 2318.8 1277.7L2318.79 1277.71C2297.28 1312.67 2274.47 1349.73 2231.06 1387.87C2152.18 1457.15 2058.09 1438.66 1928.84 1407.34C1925.72 1406.58 1922.59 1405.82 1919.43 1405.05C1916.75 1404.4 1914.05 1403.74 1911.34 1403.08C1786.03 1372.55 1631.38 1334.86 1435.99 1361.57C1349.99 1373.33 1291.41 1372.44 1247.31 1363.32C1203.45 1354.24 1173.46 1336.93 1144.68 1314.94C1133.16 1306.13 1121.8 1296.53 1109.83 1286.42C1061.57 1245.64 1003.41 1196.48 884.367 1156.88C645.646 1077.48 322.112 1056.5 28.5 1056.5C24.3579 1056.5 21 1059.86 21 1064C21 1068.14 24.3579 1071.5 28.5 1071.5C321.888 1071.5 643.354 1092.52 879.633 1171.12C995.72 1209.73 1051.58 1256.9 1099.69 1297.52C1111.86 1307.8 1123.54 1317.66 1135.57 1326.86C1165.59 1349.8 1197.61 1368.35 1244.27 1378C1290.71 1387.61 1351.17 1388.3 1438.02 1376.43C1630.54 1350.12 1782.78 1387.2 1908.1 1417.73C1913.89 1419.14 1919.62 1420.54 1925.3 1421.92C2052.93 1452.84 2155.33 1474.35 2240.96 1399.14C2286.23 1359.37 2310.57 1319.79 2332.26 1284.51C2339 1273.56 2345.48 1263.02 2352.25 1253.02C2366.62 1231.8 2382.44 1212.64 2404.99 1195.88C2427.56 1179.1 2457.22 1164.48 2499.51 1152.89C2618.44 1120.27 2677.55 1077.19 2715.54 1019.1C2734.36 990.324 2747.78 958.176 2760.87 922.635C2765.09 911.181 2769.26 899.403 2773.57 887.251L2773.58 887.235C2782.71 861.449 2792.45 833.974 2804.48 804.32C2835.07 728.905 2897 690.422 2966.41 664.656C2998.74 652.654 3032.38 643.522 3065.03 634.66L3067.78 633.914C3069.3 633.5 3070.83 633.087 3072.34 632.674C3107.07 623.228 3140.6 613.836 3169.04 601.37C3422.29 490.379 3535.74 369.008 3573.26 249.481C3600.66 162.207 3587.16 77.1679 3559.98 0H3544.05Z" stroke="#CD3C2F" stroke-width="30" stroke-linejoin="round" />
</g>
</svg>
