<svg viewBox="0 0 330 330" fill="none" xmlns="http://www.w3.org/2000/svg">
<path fill-rule="evenodd" clip-rule="evenodd" d="M0 279.948C25.1553 212.288 79.6834 180.227 174.483 154.233C237.569 136.935 281.899 108.102 306.842 76.249C326.247 51.4687 334.128 24.4001 329.08 0H313.649C318.932 19.9386 313.337 43.6251 295.032 67.0011C272.6 95.6477 231.431 123.065 170.517 139.767C88.234 162.328 31.9216 190.445 0 244.88V279.948ZM0 221.911C30.6554 175.315 82.5821 149.683 160.161 128.411C222.502 111.318 262.11 84.318 282.495 54.7955C294.906 36.8206 300.147 17.9547 299.05 0H294.039C295.147 16.9096 290.243 34.7736 278.38 51.9545C258.89 80.182 220.498 106.683 158.839 123.589C84.1686 144.063 32.064 168.847 0 213.108V221.911Z" fill="#E9ECFF"/>
</svg>
