<svg width="2243" height="4070" viewBox="0 0 2243 4070" fill="none" xmlns="http://www.w3.org/2000/svg">
<path fill-rule="evenodd" clip-rule="evenodd" d="M2137.01 0C2179.69 34.2125 2206.37 71.836 2218.89 109.355C2247.63 195.444 2202.91 284.934 2097.9 337.037C2084.9 343.491 2070.58 350.096 2055.6 357.008C2021.18 372.882 1983.27 390.37 1949.71 411.355C1901.36 441.576 1859.65 480.38 1848.43 535.035C1833.28 608.841 1815.76 650.151 1780.06 679.855C1743.78 710.039 1687.9 729.036 1593.1 755.03C1454.5 793.034 1355.52 845.153 1305.27 962.958C1295.17 986.65 1278.39 1019.41 1244.77 1046.32C1211.25 1073.15 1160.29 1094.71 1080.83 1094.71C1031.15 1094.71 978.909 1082.59 926.079 1067.47C909.527 1062.74 892.869 1057.69 876.234 1052.65L876.225 1052.65C840.164 1041.73 804.206 1030.83 769.639 1023.2C766.556 1022.52 761.299 1021.07 754.204 1019.1L754.2 1019.1C715.614 1008.42 622.686 982.693 529.588 984.707C474.332 985.903 418.059 996.831 372.415 1027.04C326.486 1057.44 292.106 1106.84 279.998 1183.24C269.531 1249.29 215.966 1271.8 155.792 1294.71C153.913 1295.42 152.028 1296.14 150.136 1296.86C93.1244 1318.5 31.2831 1341.97 14.03 1410.68C-13.0714 1518.59 13.5033 1619.61 59.2336 1694.99C82.0988 1732.67 109.84 1764.1 138.282 1786.91C166.614 1809.62 196.151 1824.18 222.623 1827.25C263.866 1832.04 298.921 1829.86 330.914 1826.04C342.889 1824.61 354.254 1822.97 365.3 1821.39C384.127 1818.69 402.023 1816.12 420.412 1814.9C449.11 1813 478.021 1814.53 510.559 1824.42C543.158 1834.32 579.757 1852.73 623.622 1885.03C670.113 1919.28 717.56 1937.26 778.583 1937.61C839.187 1937.96 912.811 1920.9 1011.79 1886.07C1108.92 1851.89 1182.46 1856.51 1257.44 1871.66C1279.52 1876.12 1301.9 1881.56 1325.13 1887.19C1380.57 1900.65 1440.85 1915.28 1513.41 1920.69C1566.42 1924.64 1606.11 1910.69 1640.94 1890.21C1658.24 1880.04 1674.35 1868.26 1690.16 1856.41C1692.29 1854.81 1694.42 1853.21 1696.55 1851.61L1696.55 1851.61C1710.25 1841.31 1723.83 1831.1 1738.2 1821.68C1771.19 1800.04 1807.88 1782.86 1856.98 1780.11C1906.24 1777.35 1968.74 1789.08 2053.28 1826.65C2144.59 1867.24 2187.82 1956.26 2203.61 2044.07C2211.49 2087.87 2212.45 2130.98 2209.24 2166.82C2206 2202.96 2198.61 2230.73 2190.52 2244.47C2153.61 2307.1 2112.66 2326.51 2073.87 2344.9L2073.83 2344.92C2070.75 2346.38 2067.68 2347.84 2064.62 2349.31C2043.77 2359.35 2023.29 2370.27 2005.45 2388.94C1987.55 2407.68 1972.78 2433.71 1962.19 2473.34C1946.74 2531.16 1952.68 2578.22 1957.75 2618.42C1959.32 2630.87 1960.81 2642.66 1961.55 2653.9C1963.14 2677.87 1961.53 2699.7 1951.33 2721.7C1941.1 2743.77 1921.87 2766.8 1886.82 2792.34C1831.98 2832.29 1774.6 2823.59 1707.6 2807.46C1700.6 2805.78 1693.51 2804.02 1686.31 2802.23C1625.22 2787.04 1556.9 2770.06 1480.33 2784.97C1412.73 2798.14 1383.29 2811.46 1355.74 2827.66C1350.48 2830.76 1345.33 2833.93 1340.01 2837.2L1339.99 2837.22L1339.98 2837.22C1317.99 2850.76 1293.17 2866.04 1246.01 2884.84C1175.25 2913.05 1101 2933.76 1025.14 2928.48C949.547 2923.22 871.645 2892.09 793.531 2815.32C770.891 2793.06 732.526 2777.16 688.56 2767.4C644.331 2757.57 593.337 2753.71 544.375 2756.36C495.478 2759 448.102 2768.16 411.321 2784.73C374.699 2801.23 347.07 2825.84 341.007 2860.09C336.428 2885.95 321.076 2905.29 298.564 2922.53C279.181 2937.38 255.195 2950.16 229.163 2964.04C224.644 2966.45 220.064 2968.89 215.435 2971.38C153.517 3004.71 84.7443 3045.95 56.1598 3132.75C-32.4141 3401.75 -6.24007 3565.95 65.6589 3660.68C137.484 3755.33 253.077 3778.19 337.821 3768.7C431.216 3758.25 495.967 3772.95 545.319 3799.94C594.852 3827.03 629.604 3866.89 662.518 3908.33C666.923 3913.88 671.301 3919.47 675.683 3925.06C703.77 3960.89 731.984 3996.88 768.104 4023.86C810.352 4055.41 863.231 4074.6 939.248 4069.05L938.154 4054.09C865.644 4059.39 816.36 4041.18 777.08 4011.84C742.688 3986.15 715.828 3951.91 687.633 3915.97C683.221 3910.35 678.776 3904.69 674.265 3899.01C641.197 3857.36 604.876 3815.42 552.517 3786.78C499.977 3758.04 432.016 3743.07 336.153 3753.8C254.721 3762.91 145.214 3740.7 77.6073 3651.62C10.0749 3562.63 -17.5145 3404.46 70.4074 3137.45C96.9867 3056.73 160.721 3017.86 222.543 2984.59C227.04 2982.17 231.536 2979.78 236.012 2977.39C261.973 2963.56 287.235 2950.1 307.685 2934.44C331.894 2915.9 350.309 2893.59 355.777 2862.7C360.578 2835.59 382.8 2814.03 417.483 2798.41C452.009 2782.85 497.394 2773.92 545.185 2771.34C592.91 2768.76 642.529 2772.54 685.307 2782.04C728.35 2791.6 763.387 2806.72 783.016 2826.01C863.476 2905.1 944.667 2937.91 1024.1 2943.44C1103.27 2948.95 1180 2927.3 1251.57 2898.77C1300.01 2879.46 1325.93 2863.5 1348.02 2849.9C1353.26 2846.67 1358.28 2843.57 1363.34 2840.59C1389.2 2825.39 1416.99 2812.6 1483.2 2799.7C1556.32 2785.45 1621.38 2801.59 1682.71 2816.8L1682.71 2816.8C1689.89 2818.58 1697.01 2820.34 1704.09 2822.05C1771.09 2838.17 1834.81 2848.79 1895.65 2804.46C1932.01 2777.97 1953.31 2753.12 1964.94 2728.01C1976.61 2702.84 1978.19 2678.19 1976.52 2652.92C1975.69 2640.39 1974.11 2627.79 1972.48 2614.83C1967.49 2575.07 1962.06 2531.91 1976.68 2477.21C1986.78 2439.43 2000.51 2415.83 2016.3 2399.3C2032.16 2382.7 2050.55 2372.73 2071.13 2362.82C2074.18 2361.35 2077.26 2359.89 2080.38 2358.42C2119.63 2339.83 2164.16 2318.74 2203.44 2252.09C2213.27 2235.41 2220.89 2204.92 2224.18 2168.15C2227.5 2131.08 2226.51 2086.63 2218.38 2041.42C2202.15 1951.2 2157.13 1856.4 2059.37 1812.95C1973.47 1774.77 1908.54 1762.2 1856.14 1765.13C1803.58 1768.08 1764.37 1786.58 1729.97 1809.14C1715.17 1818.85 1701.17 1829.38 1687.48 1839.66L1687.29 1839.8C1685.24 1841.34 1683.2 1842.88 1681.16 1844.41C1665.38 1856.23 1649.85 1867.57 1633.34 1877.28C1600.55 1896.56 1563.88 1909.41 1514.52 1905.73C1443.24 1900.42 1384.92 1886.25 1329.93 1872.9L1329.93 1872.9L1329.92 1872.9C1306.39 1867.19 1283.47 1861.62 1260.41 1856.96C1183.62 1841.44 1107.2 1836.59 1006.81 1871.92C908.273 1906.6 836.628 1922.94 778.669 1922.61C721.128 1922.28 676.718 1905.51 632.517 1872.96C587.643 1839.9 549.53 1820.58 514.919 1810.06C480.248 1799.53 449.452 1797.95 419.421 1799.94C400.555 1801.19 381.582 1803.9 362.284 1806.66C351.351 1808.23 340.314 1809.81 329.134 1811.14C297.827 1814.88 264.032 1816.95 224.352 1812.35C201.684 1809.72 174.746 1796.92 147.665 1775.21C120.694 1753.58 94.0849 1723.51 72.058 1687.2C28.0038 1614.59 2.62785 1517.66 28.578 1414.33C43.8949 1353.34 98.622 1332.51 157.987 1309.92L161.13 1308.73C220.039 1286.29 282.819 1261.28 294.813 1185.59C306.329 1112.92 338.611 1067.4 380.693 1039.55C423.061 1011.51 476.148 1000.87 529.913 999.704C620.223 997.75 709.748 1022.43 749.355 1033.34L749.356 1033.35L749.359 1033.35C757.037 1035.46 762.839 1037.06 766.405 1037.85C800.407 1045.36 835.422 1055.97 871.178 1066.8L871.183 1066.8C887.953 1071.88 904.886 1077.01 921.953 1081.9C975.02 1097.08 1028.95 1109.71 1080.83 1109.71C1163.2 1109.71 1217.6 1087.28 1254.14 1058.04C1290.58 1028.87 1308.56 993.484 1319.07 968.844C1366.57 857.476 1459.84 807.122 1597.07 769.496C1691.2 743.686 1750.44 724.014 1789.65 691.385C1829.45 658.275 1847.81 612.627 1863.12 538.051C1873.08 489.523 1910.41 453.611 1957.66 424.074C1990.4 403.605 2026.77 386.834 2060.79 371.143C2076.04 364.115 2090.81 357.304 2104.57 350.474C2214.08 296.136 2264.93 199.898 2233.12 104.605C2220.98 68.2512 2196.98 32.6245 2160.28 0H2137.01Z" fill="#E9ECFF"/>
</svg>
